<?xml version="1.0" encoding="UTF-8" standalone="no"?>
<svg
   xmlns:dc="http://purl.org/dc/elements/1.1/"
   xmlns:cc="http://creativecommons.org/ns#"
   xmlns:rdf="http://www.w3.org/1999/02/22-rdf-syntax-ns#"
   xmlns:svg="http://www.w3.org/2000/svg"
   xmlns="http://www.w3.org/2000/svg"
   xmlns:sodipodi="http://sodipodi.sourceforge.net/DTD/sodipodi-0.dtd"
   xmlns:inkscape="http://www.inkscape.org/namespaces/inkscape"
   width="187.22356mm"
   height="187.22356mm"
   viewBox="0 0 187.22356 187.22356"
   version="1.1"
   id="svg8"
   inkscape:version="1.0.1 (3bc2e813f5, 2020-09-07)"
   sodipodi:docname="link icon.svg">
  <defs
     id="defs2" />
  <sodipodi:namedview
     id="base"
     pagecolor="#ffffff"
     bordercolor="#666666"
     borderopacity="1.0"
     inkscape:pageopacity="0.0"
     inkscape:pageshadow="2"
     inkscape:zoom="0.35355339"
     inkscape:cx="-445.3906"
     inkscape:cy="294.07046"
     inkscape:document-units="mm"
     inkscape:current-layer="layer1"
     inkscape:document-rotation="0"
     showgrid="false"
     showborder="false"
     inkscape:window-width="1920"
     inkscape:window-height="1051"
     inkscape:window-x="-9"
     inkscape:window-y="-9"
     inkscape:window-maximized="1" />
  <metadata
     id="metadata5">
    <rdf:RDF>
      <cc:Work
         rdf:about="">
        <dc:format>image/svg+xml</dc:format>
        <dc:type
           rdf:resource="http://purl.org/dc/dcmitype/StillImage" />
        <dc:title></dc:title>
      </cc:Work>
    </rdf:RDF>
  </metadata>
  <g
     inkscape:label="Layer 1"
     inkscape:groupmode="layer"
     id="layer1"
     transform="translate(-54.819469,77.472197)">
    <path
       id="rect1029"
       style="opacity:1;fill:#fb960b;fill-opacity:1;stroke:none;stroke-width:0.45978;stroke-opacity:1"
       d="m 167.70138,-3.1305496 c -5.77124,-5.7712457 -12.56986,-9.8567804 -19.79559,-12.2630764 -3.25198,3.336244 -5.32116,7.7748788 -5.83373,12.4037585 -0.21025,1.5506891 -0.23276,3.11244861 -0.0943,4.6582145 4.53482,1.4864048 8.81588,3.9824932 12.29378,7.281112 0.22689,0.2209125 0.45103,0.4446439 0.67271,0.6712543 3.3253,3.3991387 6.04682,7.4328917 7.62788,11.9133807 1.80929,4.974992 2.32582,10.485023 1.60159,15.661003 -0.74581,5.495487 -2.93623,10.818711 -6.46479,15.115449 -8.55904,9.448786 -17.81761,18.224934 -26.79753,27.265249 -2.2201,2.176702 -4.34981,4.338598 -6.80937,6.16333 -5.75997,4.237384 -13.27786,6.259197 -20.34626,5.919238 -8.299878,-0.32223 -16.358652,-4.181592 -21.996073,-10.1861 -1.681005,-1.779268 -3.194286,-3.761019 -4.485378,-5.960164 -1.376723,-2.357918 -2.388553,-4.706036 -3.137755,-7.309979 -1.515323,-5.303633 -1.652839,-10.965544 -0.438489,-16.305947 0.897004,-3.933674 2.53565,-7.720472 4.919116,-11.032385 4.242142,-5.166513 8.986015,-9.886472 13.721785,-14.625071 4.656693,-4.557034 9.198264,-9.230464 13.841634,-13.800711 -1.66208,-7.5734205 -1.75193,-15.4533202 -0.40852,-23.073296 -3.39256,2.0664115 -6.599454,4.5655943 -9.5386,7.5047404 L 69.666919,23.436041 c -19.7966,19.7966 -19.7966,51.671271 0,71.467871 19.796606,19.796608 51.671271,19.796598 71.467871,0 l 26.56659,-26.566591 c 19.7966,-19.796602 19.79661,-51.671265 0,-71.4678706 z" />
    <path
       id="path1098"
       style="opacity:1;fill:#fb960b;fill-opacity:1;stroke:none;stroke-width:0.45978;stroke-opacity:1"
       d="m 227.19558,-62.624746 c -19.7966,-19.7966 -51.67127,-19.796602 -71.46787,0 l -26.56659,26.566591 c -19.7966,19.7966 -19.7966,51.671271 0,71.467871 5.78548,5.785489 12.60326,9.877438 19.84893,12.281347 2.59746,-2.711724 4.48,-6.101077 5.31888,-9.767343 0.59946,-2.387883 0.76202,-4.855929 0.53386,-7.289516 -5.16827,-1.69948 -9.90974,-4.716126 -13.60888,-8.656138 -1.681,-1.779266 -3.19428,-3.761018 -4.48537,-5.960163 -1.37673,-2.357918 -2.38856,-4.706036 -3.13776,-7.3099796 -1.51532,-5.3036327 -1.65284,-10.9655436 -0.43849,-16.3059466 0.897,-3.9336738 2.53565,-7.7204718 4.91912,-11.0323848 4.24214,-5.166513 8.98601,-9.886472 13.72178,-14.625071 5.4915,-5.373976 10.82153,-10.911026 16.34907,-16.248213 3.06561,-3.12105 6.65049,-5.64436 10.7174,-7.366616 6.34624,-2.746933 13.73194,-3.311873 20.42007,-1.582579 5.32366,1.345949 10.42203,4.091577 14.44602,7.90815 0.22688,0.220937 0.45104,0.444625 0.67272,0.671255 3.3253,3.39913 6.04682,7.432895 7.62788,11.91338 1.80929,4.974991 2.32582,10.485029 1.60158,15.661003 -0.7458,5.495492 -2.93622,10.818717 -6.46479,15.1154493 -8.47145,9.3520966 -17.62734,18.0460857 -26.52091,26.9886357 1.65003,7.582672 1.75103,15.480328 0.41218,23.106912 3.39104,-2.065935 6.59661,-4.564212 9.53458,-7.502182 L 227.19558,8.8431251 c 19.7966,-19.7966021 19.7966,-51.6712651 0,-71.4678711 z" />
  </g>
</svg>
